<?xml version="1.0" encoding="UTF-8"?>
<!DOCTYPE svg PUBLIC "-//W3C//DTD SVG 1.1//EN" "http://www.w3.org/Graphics/SVG/1.1/DTD/svg11.dtd">
<svg xmlns="http://www.w3.org/2000/svg" version="1.1" width="512px" height="512px" style="shape-rendering:geometricPrecision; text-rendering:geometricPrecision; image-rendering:optimizeQuality; fill-rule:evenodd; clip-rule:evenodd" xmlns:xlink="http://www.w3.org/1999/xlink">
<g><path style="opacity:0.988" fill="#000000" d="M 242.5,35.5 C 329.563,33.9395 396.73,69.2728 444,141.5C 484.459,214.439 485.792,288.106 448,362.5C 407.625,430.453 347.792,467.953 268.5,475C 181.407,477.044 114.24,441.878 67,369.5C 31.0867,305.871 26.0867,239.871 52,171.5C 84.1557,99.3594 138.989,55.1928 216.5,39C 225.292,37.6524 233.959,36.4857 242.5,35.5 Z M 251.5,109.5 C 272.164,109.738 285.331,119.738 291,139.5C 291.5,166.165 291.667,192.831 291.5,219.5C 319.551,219.034 347.551,219.534 375.5,221C 398.036,230.591 405.536,247.091 398,270.5C 393.287,280.213 385.787,286.713 375.5,290C 347.551,291.466 319.551,291.966 291.5,291.5C 291.966,319.551 291.466,347.551 290,375.5C 280.409,398.036 263.909,405.536 240.5,398C 230.787,393.287 224.287,385.787 221,375.5C 219.534,347.551 219.034,319.551 219.5,291.5C 191.449,291.966 163.449,291.466 135.5,290C 112.964,280.409 105.464,263.909 113,240.5C 117.713,230.787 125.213,224.287 135.5,221C 163.449,219.534 191.449,219.034 219.5,219.5C 219.034,191.449 219.534,163.449 221,135.5C 226.196,120.843 236.362,112.176 251.5,109.5 Z"/></g>
</svg>
